<?xml version="1.0" standalone="no"?>
<!DOCTYPE svg PUBLIC "-//W3C//DTD SVG 20010904//EN"
 "http://www.w3.org/TR/2001/REC-SVG-20010904/DTD/svg10.dtd">
<svg version="1.0" xmlns="http://www.w3.org/2000/svg"
 width="235.000000pt" height="269.000000pt" viewBox="0 0 235.000000 269.000000"
 preserveAspectRatio="xMidYMid meet">

<g transform="translate(0.000000,269.000000) scale(0.100000,-0.100000)"
fill="#D9A441" stroke="none">
<path d="M0 1345 l0 -1345 1175 0 1175 0 0 1345 0 1345 -1175 0 -1175 0 0
-1345z m899 1242 c43 -15 74 -40 160 -126 99 -98 287 -339 298 -382 5 -18 13
-21 137 -44 94 -17 164 -49 178 -81 25 -55 -29 -113 -129 -135 -61 -14 -54 17
-56 -244 l-2 -160 -49 -105 c-62 -130 -119 -193 -229 -251 -64 -33 -92 -42
-151 -46 -139 -11 -304 40 -386 119 -131 127 -169 214 -177 405 l-6 122 -28
-6 c-37 -7 -166 22 -207 47 -26 16 -32 26 -32 54 0 60 58 106 196 156 l62 22
27 106 c50 197 55 226 42 234 -13 8 -38 3 -105 -18 -61 -20 -81 -18 -94 11
-25 56 66 187 189 272 118 81 235 97 362 50z m1155 -289 c18 -29 43 -73 56
-98 12 -25 32 -55 43 -67 20 -23 20 -26 8 -195 -7 -95 -19 -231 -27 -303 -7
-71 -16 -190 -20 -262 l-7 -133 52 0 c64 0 109 -22 117 -57 17 -66 -44 -123
-132 -123 -62 0 -74 -19 -24 -40 17 -7 42 -26 55 -42 23 -27 25 -37 25 -139 0
-107 -18 -189 -42 -189 -5 0 -16 -7 -24 -15 -9 -8 -23 -15 -33 -15 -15 0 -19
-11 -24 -60 -4 -34 -11 -70 -17 -80 -29 -54 -109 -50 -142 6 l-21 35 -25 -23
c-14 -13 -51 -49 -82 -80 -62 -62 -96 -74 -177 -65 -36 4 -54 13 -87 46 -23
22 -45 41 -49 41 -4 0 -7 -79 -7 -175 l0 -175 -468 0 -469 0 -6 98 c-4 53 -7
146 -7 205 0 60 -4 106 -9 103 -4 -3 -11 -49 -15 -103 -4 -54 -15 -143 -24
-198 l-17 -100 -168 -3 c-141 -2 -168 0 -173 12 -9 22 14 470 27 546 7 36 21
84 32 108 25 55 188 234 247 272 57 37 155 80 180 80 11 0 42 -17 70 -38 27
-21 67 -44 87 -51 21 -8 41 -18 44 -23 3 -5 50 -16 104 -25 82 -14 109 -15
169 -5 73 13 204 69 243 105 20 18 25 18 55 6 55 -22 107 -58 154 -107 45 -46
104 -150 104 -182 0 -10 7 -24 16 -31 15 -12 21 -8 55 31 22 25 55 75 74 112
37 69 71 104 112 114 46 12 13 34 -51 34 -33 0 -92 33 -106 60 -6 10 -10 34
-10 53 0 44 29 64 104 73 l56 7 0 41 c0 22 -4 91 -10 151 -5 61 -14 228 -20
372 -12 287 -9 316 39 388 15 22 44 66 64 98 21 31 44 57 52 57 8 0 30 -24 49
-52z"/>
<path d="M1218 1761 c-1 -5 -50 -13 -108 -17 -99 -6 -278 -36 -400 -66 l-55
-14 2 -102 c1 -75 6 -110 17 -127 9 -13 16 -35 16 -49 0 -30 85 -146 120 -163
108 -52 111 -53 193 -53 65 0 92 5 129 23 49 24 52 39 8 52 -36 11 -68 43 -75
77 -11 49 4 57 87 42 118 -21 132 -19 150 20 34 70 49 159 46 272 l-3 109 -62
3 c-34 2 -63 -1 -65 -7z m-124 -153 c27 -39 17 -113 -16 -124 -40 -12 -91 -6
-105 12 -20 28 -16 91 7 114 29 29 94 27 114 -2z"/>
</g>
</svg>
